PathFileType	4	(X/Y/Z)	C:/Users/opensim2020/Desktop/walking_exp_matlab/subject02_walking15_straight_04.trc	
DataRate	CameraRate	NumFrames	NumMarkers	Units	OrigDataRate	OrigDataStartFrame	OrigNumFrames	
100.00	100.00	4	42	mm	100.00	1736	152	
Frame#	Time	LFHD			RFHD			LBHD			RBHD			C7			T10			CLAV			STRN			RBAK			LSHO			LUPA			LELB			LFRM			LWRA			LWRB			LFIN			RSHO			RUPA			RELB			RFRM			RWRA			RWRB			RFIN			LASI			RASI			LPSI			RPSI			LTHI			LKNE			LTIB			LANK			LHEE			LTOE			RTHI			RKNE			RTIB			RANK			RHEE			RTOE			*39			*40			*41			
		X1	Y1	Z1	X2	Y2	Z2	X3	Y3	Z3	X4	Y4	Z4	X5	Y5	Z5	X6	Y6	Z6	X7	Y7	Z7	X8	Y8	Z8	X9	Y9	Z9	X10	Y10	Z10	X11	Y11	Z11	X12	Y12	Z12	X13	Y13	Z13	X14	Y14	Z14	X15	Y15	Z15	X16	Y16	Z16	X17	Y17	Z17	X18	Y18	Z18	X19	Y19	Z19	X20	Y20	Z20	X21	Y21	Z21	X22	Y22	Z22	X23	Y23	Z23	X24	Y24	Z24	X25	Y25	Z25	X26	Y26	Z26	X27	Y27	Z27	X28	Y28	Z28	X29	Y29	Z29	X30	Y30	Z30	X31	Y31	Z31	X32	Y32	Z32	X33	Y33	Z33	X34	Y34	Z34	X35	Y35	Z35	X36	Y36	Z36	X37	Y37	Z37	X38	Y38	Z38	X39	Y39	Z39	X40	Y40	Z40	X41	Y41	Z41	X42	Y42	Z42	

58	0.570	-1026.09448	325.85190	1707.86816	-1169.37354	327.72668	1693.32434	-1016.51538	448.62531	1620.11035	-1159.92578	461.96539	1602.85107	-1083.36768	495.63754	1484.87988	-1100.65820	547.90912	1211.47522	-1083.42432	354.48242	1416.84985	-1093.18005	303.35236	1244.66504	-1141.76685	557.82007	1310.20862	-910.66516	411.32629	1459.69739	-820.50775	386.06647	1268.41565	-801.98865	345.17932	1129.46997	-837.14874	246.16150	1043.37756	-921.73999	142.69974	1011.85046	-882.26282	156.64516	973.51703	-904.41321	97.25214	954.02179	-1273.54443	437.64664	1452.49194	-1344.06836	531.24249	1284.83203	-1361.06177	564.50055	1143.83521	-1385.45813	590.97656	1028.16235	-1371.65125	604.53003	890.66113	-1400.48926	649.28192	911.61743	-1399.01697	653.84308	836.51904	-955.22107	352.31866	936.77325	-1208.41833	310.02811	943.26581	-1069.61023	541.53607	993.84247	-1181.95715	532.99854	997.76599	-929.33142	515.66895	649.57611	-972.16534	608.09088	471.07495	-985.63043	744.97943	332.46268	-1025.75635	841.61139	128.72678	-1080.57520	879.19043	119.59235	-1006.58142	713.08990	36.86565	-1309.25403	294.88431	661.00378	-1275.89502	228.07584	464.38678	-1294.14172	210.18033	277.32248	-1275.70508	165.08685	89.01164	-1225.27551	187.80415	34.01897	-1272.14819	1.28778	63.61814	-1111.79578	436.22427	1764.55859	-3357.43506	2845.99463	1034.47705			 
59	0.580	-1027.75476	312.10651	1706.73877	-1171.43311	313.22543	1692.34155	-1019.20160	434.41385	1618.96497	-1162.54272	447.40176	1601.71826	-1086.39648	481.92007	1483.12976	-1103.66016	532.10394	1209.68262	-1085.89441	339.83981	1415.88257	-1095.82178	287.68881	1244.39941	-1145.12280	542.68909	1308.45605	-913.44080	397.90225	1458.46387	-822.94904	373.10056	1267.26965	-803.71783	332.23584	1128.38696	-838.67047	233.20505	1043.32214	-923.10089	128.36813	1013.91394	-883.92438	141.94699	975.06665	-905.63495	82.12200	956.81067	-1276.30383	422.79871	1451.30688	-1347.27905	515.26526	1282.98279	-1363.88501	547.97516	1141.90161	-1388.61792	574.44989	1026.49255	-1375.31848	588.30609	888.90503	-1404.10425	632.97296	910.12793	-1403.23242	637.81555	835.17871	-958.20721	332.97482	935.34198	-1211.17432	292.43631	943.37561	-1072.13940	523.50085	991.80908	-1184.10010	515.15540	995.91052	-930.44446	497.91098	648.66180	-971.74152	590.88849	471.34027	-985.39893	732.18207	337.08170	-1024.31250	835.55432	136.62752	-1079.31140	872.18927	129.61107	-1006.24762	712.63446	36.70509	-1309.92249	272.63834	662.20038	-1279.26062	211.58307	463.42343	-1294.48438	196.85992	275.92236	-1278.98071	155.00803	89.15521	-1229.23828	184.34222	37.10841	-1269.45361	-7.03688	47.19693	-1115.11975	421.99722	1763.55945	-3360.40527	2845.38721	1034.32288			 
60	0.590	-1029.64783	298.18637	1706.33704	-1173.53748	298.86145	1692.12158	-1021.69580	420.24173	1617.95203	-1165.11682	432.94305	1601.35693	-1089.35730	468.41116	1481.88098	-1105.99329	515.97021	1208.28442	-1088.27136	325.43347	1415.62317	-1098.33789	272.08273	1244.59534	-1147.62891	527.34344	1306.91125	-915.93243	384.63831	1457.73376	-825.40973	360.16998	1266.40088	-805.32617	319.98914	1127.59058	-840.26044	219.70131	1043.41187	-924.03259	114.55408	1015.23047	-885.10297	128.14963	975.99200	-906.38824	67.82455	958.68506	-1279.07642	408.09406	1450.46777	-1350.55713	499.00928	1281.21777	-1366.91052	530.97864	1140.06519	-1391.86377	557.32202	1024.80103	-1378.98853	571.34100	887.08380	-1407.79395	615.71936	908.52997	-1406.96216	620.58978	833.51489	-961.62256	313.76807	934.63806	-1214.08838	275.03793	943.81573	-1074.23535	506.32620	990.56927	-1186.13538	497.07541	995.27844	-931.93304	479.33398	648.30353	-971.16144	572.18994	471.71869	-985.49731	717.88544	342.05865	-1022.81042	828.16357	145.22198	-1078.44275	863.21753	140.37984	-1005.99384	711.95612	36.66743	-1312.18848	254.15375	664.21399	-1281.44775	193.21544	465.18378	-1298.91797	181.72426	278.64471	-1280.17456	145.56897	88.73291	-1231.39624	181.70944	38.69368	-1267.04321	-12.36258	43.19930	-1116.72485	407.80698	1763.01086	-3357.39063	2845.97241	1034.34119			 
61	0.600	-1031.86731	284.18076	1706.57788	-1175.70178	284.48071	1692.45569	-1024.03638	406.36389	1618.28308	-1167.60242	418.61285	1601.61633	-1092.24695	454.73761	1481.49500	-1107.89331	500.19089	1207.50134	-1090.47473	311.23648	1416.07275	-1100.79102	256.52960	1245.87402	-1150.27783	512.17371	1306.24878	-918.03467	371.60077	1457.54395	-827.61908	347.80493	1265.85608	-807.26178	308.30261	1126.77319	-841.46307	206.74615	1043.20178	-924.34741	101.50300	1015.69006	-885.92908	115.06814	976.37115	-906.72247	54.39931	959.75793	-1281.69568	393.51193	1449.98987	-1353.80249	482.45074	1279.70984	-1369.70264	513.34351	1138.14282	-1395.34705	539.31958	1023.35339	-1382.67126	553.16736	885.45947	-1411.59753	597.42517	906.93781	-1411.16919	602.08771	831.96460	-965.38153	294.86801	934.06708	-1216.95874	258.08578	944.71356	-1076.01880	488.61899	989.74011	-1188.04919	479.30838	996.05365	-933.59973	460.29190	647.98322	-970.48975	551.65771	471.88120	-985.23645	701.69702	347.30896	-1021.77264	818.38568	154.16742	-1077.72461	851.89807	151.62807	-1005.58643	711.54895	36.70704	-1317.04858	238.71977	665.74786	-1280.90442	172.50290	468.67206	-1299.91492	164.53461	282.47150	-1278.60706	142.07033	89.69630	-1229.93127	180.29495	39.09492	-1273.13684	-12.79408	40.54181	-1119.20227	393.67902	1763.04614	-3357.54102	2846.14111	1034.40686			 
